REM MD5 79c25c7336bae99f970a24160a8eed47
FILE "Best Buy Greatest Hits Demo Disc - Volume One (USA).bin" BINARY
  TRACK 01 MODE2/2352
    INDEX 01 00:00:00
  TRACK 02 AUDIO
    INDEX 00 29:06:45
    INDEX 01 29:08:45
  TRACK 03 AUDIO
    INDEX 00 29:54:24
    INDEX 01 29:56:24
REM LEADOUT 30:02:20
